<svg width="121" height="25" viewBox="0 0 121 25" fill="none" xmlns="http://www.w3.org/2000/svg">
<g clip-path="url(#clip0_3_438)">
<path d="M15.7847 16.9688C16.5627 16.2878 17.0697 15.3928 17.3087 14.2848H24.9887C24.6367 17.4518 23.3617 20.0158 21.1647 21.9788C18.9667 23.9418 16.2607 24.9238 13.0487 24.9238C10.7057 24.9238 8.59673 24.4088 6.72073 23.3798C4.84473 22.3508 3.38073 20.9208 2.32873 19.0898C1.27673 17.2588 0.750732 15.2038 0.750732 12.9238C0.750732 10.6438 1.27673 8.58883 2.32873 6.75783C3.38073 4.92683 4.84473 3.49683 6.72073 2.46783C8.59673 1.43783 10.7057 0.923828 13.0487 0.923828C16.2097 0.923828 18.8787 1.87083 21.0557 3.76583C23.2317 5.65983 24.5177 8.14283 24.9107 11.2138H17.3407C17.0197 10.2008 16.4707 9.38583 15.6927 8.76783C14.9157 8.15083 14.0447 7.84183 13.0807 7.84183C11.7537 7.84183 10.6837 8.30883 9.87073 9.24283C9.05573 10.1768 8.64973 11.4038 8.64973 12.9228C8.64973 14.4328 9.05973 15.6548 9.87773 16.5888C10.6977 17.5228 11.7637 17.9888 13.0807 17.9888C14.1067 17.9888 15.0077 17.6488 15.7847 16.9688ZM43.0447 10.7288C44.5357 12.1588 45.2817 14.0088 45.2817 16.2758C45.2817 18.8678 44.4237 20.9578 42.7067 22.5438C40.9887 24.1308 38.7267 24.9238 35.9167 24.9238C33.1407 24.9238 30.8837 24.1278 29.1447 22.5358C27.4047 20.9428 26.5357 18.8798 26.5357 16.3428C26.5357 14.9578 26.7747 13.5638 27.2517 12.1618C27.7287 10.7598 28.4667 9.22583 29.4657 7.56183L32.9957 1.69183L40.4557 1.69083L36.2787 8.61683C36.6957 8.59483 37.0247 8.58383 37.2667 8.58383C39.6257 8.58383 41.5517 9.29883 43.0447 10.7288ZM38.0077 18.4038C38.5447 17.8568 38.8137 17.1478 38.8137 16.2758C38.8137 15.4048 38.5447 14.6898 38.0077 14.1308C37.4697 13.5718 36.7727 13.2928 35.9177 13.2928C35.0617 13.2928 34.3637 13.5728 33.8277 14.1308C33.2887 14.6898 33.0207 15.4048 33.0207 16.2758C33.0207 17.1478 33.2887 17.8568 33.8267 18.4038C34.3637 18.9518 35.0617 19.2258 35.9167 19.2258C36.7727 19.2258 37.4707 18.9518 38.0077 18.4038ZM59.2667 11.8838C61.9167 12.6678 63.5907 15.0128 63.5907 18.0438C63.5907 19.7188 63.0127 21.1738 61.8727 22.3688C60.7397 23.5548 59.3187 24.1568 57.6487 24.1568H50.4227C50.4095 24.1567 50.3964 24.154 50.3842 24.1488C50.372 24.1436 50.3609 24.136 50.3516 24.1265C50.3423 24.1171 50.335 24.1059 50.33 24.0936C50.3251 24.0813 50.3226 24.0681 50.3227 24.0548V1.79283C50.3227 1.73683 50.3667 1.69083 50.4227 1.69083H56.7877C58.3347 1.69083 59.6117 2.20783 60.5807 3.22883C61.5767 4.20883 62.0847 5.51883 62.0847 7.11583C62.0847 9.25783 61.0217 11.0238 59.2667 11.8838ZM61.2667 21.7958C62.2827 20.7608 62.7767 19.5338 62.7767 18.0428C62.7767 16.3868 62.2697 15.0298 61.2697 14.0118C60.2347 12.9588 58.9597 12.4458 57.3717 12.4458H51.1377V23.3268H57.6477C59.0797 23.3268 60.2977 22.8108 61.2667 21.7958ZM51.1367 2.52083V11.6168H56.7877C58.1097 11.6168 59.1927 11.1948 60.0087 10.3638C60.8457 9.51183 61.2697 8.41883 61.2697 7.11583C61.2697 4.40983 59.4267 2.52083 56.7877 2.52083H51.1367ZM120.732 23.9958C120.743 24.0108 120.749 24.0285 120.75 24.047C120.752 24.0654 120.748 24.0839 120.74 24.1005C120.732 24.117 120.719 24.1309 120.703 24.1406C120.687 24.1504 120.669 24.1557 120.651 24.1558H119.893C119.876 24.156 119.86 24.1521 119.846 24.1446C119.831 24.1371 119.819 24.1262 119.81 24.1128L111.711 12.5478L108.134 16.7538V24.0538C108.134 24.0672 108.132 24.0804 108.127 24.0929C108.122 24.1053 108.115 24.1166 108.105 24.1262C108.096 24.1358 108.085 24.1434 108.073 24.1487C108.06 24.1539 108.047 24.1567 108.034 24.1568H107.432C107.418 24.1567 107.405 24.154 107.393 24.1488C107.381 24.1436 107.37 24.136 107.361 24.1265C107.351 24.1171 107.344 24.1059 107.339 24.0936C107.334 24.0813 107.332 24.0681 107.332 24.0548V1.79283C107.332 1.73683 107.377 1.69083 107.432 1.69083H108.034C108.089 1.69083 108.134 1.73683 108.134 1.79283V15.5168L119.751 1.72683C119.76 1.71559 119.772 1.70655 119.785 1.70033C119.799 1.69412 119.813 1.69087 119.828 1.69083H120.624C120.68 1.69083 120.725 1.73683 120.725 1.79283C120.725 1.81783 120.715 1.84083 120.701 1.85883L112.25 11.8908L120.732 23.9958ZM102.247 1.69083C102.302 1.69083 102.347 1.73683 102.347 1.79283V24.0548C102.347 24.0681 102.344 24.0813 102.339 24.0936C102.334 24.1059 102.327 24.1171 102.318 24.1265C102.309 24.136 102.298 24.1436 102.285 24.1488C102.273 24.154 102.26 24.1567 102.247 24.1568H101.97C101.954 24.1569 101.938 24.1531 101.924 24.1458C101.91 24.1385 101.898 24.1279 101.889 24.1148L87.3087 3.51483V24.0548C87.3089 24.0681 87.3064 24.0813 87.3014 24.0936C87.2965 24.1059 87.2891 24.1171 87.2799 24.1265C87.2706 24.136 87.2595 24.1436 87.2473 24.1488C87.2351 24.154 87.222 24.1567 87.2087 24.1568H86.5947C86.5815 24.1567 86.5684 24.154 86.5562 24.1488C86.544 24.1436 86.5329 24.136 86.5236 24.1265C86.5143 24.1171 86.507 24.1059 86.502 24.0936C86.4971 24.0813 86.4946 24.0681 86.4947 24.0548V1.79283C86.4947 1.73683 86.5397 1.69083 86.5947 1.69083H86.9847C87.0004 1.69106 87.0158 1.69498 87.0297 1.70228C87.0436 1.70957 87.0556 1.72004 87.0647 1.73283L101.532 22.1728V1.79383C101.532 1.73783 101.577 1.69183 101.632 1.69183L102.247 1.69083ZM82.8687 24.0188C82.8748 24.0341 82.877 24.0507 82.8751 24.0671C82.8733 24.0834 82.8675 24.0991 82.8582 24.1127C82.849 24.1263 82.8365 24.1374 82.822 24.1451C82.8074 24.1528 82.7912 24.1568 82.7747 24.1568H82.1367C82.1159 24.1567 82.0957 24.15 82.0789 24.1379C82.062 24.1257 82.0494 24.1085 82.0427 24.0888L79.4907 17.2058H69.0877L66.5367 24.0908C66.5297 24.1102 66.517 24.1269 66.5002 24.1387C66.4833 24.1505 66.4633 24.1568 66.4427 24.1568H65.8037C65.7872 24.1567 65.771 24.1526 65.7565 24.1448C65.7419 24.137 65.7295 24.1257 65.7204 24.112C65.7112 24.0983 65.7055 24.0825 65.7038 24.0661C65.7022 24.0497 65.7045 24.0331 65.7107 24.0178L74.0007 1.75683C74.0077 1.7375 74.0205 1.7208 74.0373 1.70899C74.0541 1.69718 74.0742 1.69084 74.0947 1.69083H74.4827C74.5036 1.6907 74.5239 1.69709 74.541 1.70911C74.558 1.72112 74.5709 1.73815 74.5777 1.75783L82.8687 24.0188ZM69.3867 16.3758H79.1927L74.2907 3.29283L69.3867 16.3758Z" fill="#242424"/>
</g>
<defs>
<clipPath id="clip0_3_438">
<rect width="120" height="24" fill="white" transform="translate(0.750732 0.923828)"/>
</clipPath>
</defs>
</svg>
